# xmcd
#
# Track frame offsets:
#	182
#	8750
#	20215
#	32947
#	40662
#	52555
#	62955
#	72670
#	85907
#	98567
#	109367
#	120477
#	132517
#	145340
#	155155
#	166315
#
# Disc length: 2394 seconds
#
# Revision: 0
# Processed by: cddbd v1.4PL0 Copyright (c) Steve Scherf et al.
# Submitted via: audiograbber 1.80.04
#
DISCID=df095810
DTITLE=Jim Reeves - Special Edition Disc 3
DYEAR=1998
DGENRE=Country
TTITLE0=One Dozen Roses
TTITLE1=Anna Marie
TTITLE2=Golden Memories And Silver Tears
TTITLE3=Gypsy Feet
TTITLE4=Scarlet Ribbons 
TTITLE5=Am I Losing You
TTITLE6=The Storm
TTITLE7=Have I told You Lately That I love You
TTITLE8=I Can't Stop Loving You
TTITLE9=Memories Are Made Of This
TTITLE10=Make The World Go Away
TTITLE11=Missing You
TTITLE12=Rose Are Red
TTITLE13=The Hawaiian Wedding Song
TTITLE14=How Can I Write On Paper
TTITLE15=Danny Boy
EXTD=
EXTT0=
EXTT1=
EXTT2=
EXTT3=
EXTT4=
EXTT5=
EXTT6=
EXTT7=
EXTT8=
EXTT9=
EXTT10=
EXTT11=
EXTT12=
EXTT13=
EXTT14=
EXTT15=
PLAYORDER=
